<svg xmlns="http://www.w3.org/2000/svg" width="1600" height="900" viewBox="0 0 1600 900">
<defs><marker id="a" markerWidth="10" markerHeight="10" refX="8" refY="3" orient="auto"><path d="M0,0 L0,6 L9,3 z" fill="#77d9a0"/></marker><style>text{font-family:Arial,sans-serif;fill:#eaf5ee}.t{font-size:34px;font-weight:700}.s{font-size:20px;fill:#9eb3a5}.b{fill:#102018;stroke:#2d5540;stroke-width:2}.g{fill:#153322;stroke:#77d9a0;stroke-width:2}.w{fill:#231f13;stroke:#c7a95e;stroke-width:2}.l{stroke:#77d9a0;stroke-width:3;fill:none;marker-end:url(#a)}</style></defs>
<rect width="1600" height="900" fill="#08100c"/><text x="70" y="70" class="t">RescueRoute AI — Agent Architecture</text><text x="70" y="106" class="s">Strands Graph + deterministic safety guardrails + AgentCore deployment target</text>
<rect x="70" y="190" rx="18" ry="18" width="260" height="95" class="b"/><text x="105" y="228" class="t" font-size="26">Donor / NGO</text><text x="105" y="260" class="s">surplus-food event</text>
<rect x="420" y="190" rx="18" ry="18" width="300" height="95" class="b"/><text x="452" y="228" class="t" font-size="26">Command Center</text><text x="452" y="260" class="s">FastAPI + live timeline</text>
<path d="M330 238 L420 238" class="l"/>
<rect x="810" y="150" rx="24" ry="24" width="700" height="390" class="g"/><text x="850" y="195" class="t" font-size="28">Strands Graph</text>
<g><rect x="850" y="235" rx="14" width="118" height="70" class="b"/><text x="875" y="277" font-size="20">Intake</text><rect x="985" y="235" rx="14" width="118" height="70" class="b"/><text x="1006" y="277" font-size="20">Safety</text><rect x="1120" y="235" rx="14" width="118" height="70" class="b"/><text x="1133" y="277" font-size="20">Matching</text><rect x="1255" y="235" rx="14" width="118" height="70" class="b"/><text x="1264" y="277" font-size="20">Logistics</text><rect x="1390" y="235" rx="14" width="85" height="70" class="b"/><text x="1402" y="277" font-size="17">Comms</text></g>
<path d="M968 270 L985 270" class="l"/><path d="M1103 270 L1120 270" class="l"/><path d="M1238 270 L1255 270" class="l"/><path d="M1373 270 L1390 270" class="l"/>
<rect x="890" y="365" rx="16" width="540" height="120" class="b"/><text x="930" y="408" class="t" font-size="25">Deterministic action tools</text><text x="930" y="442" class="s">eligibility • allergens • refrigeration • capacity</text><text x="930" y="472" class="s">allocation • volunteer assignment • audit events</text>
<path d="M720 238 L810 238" class="l"/><path d="M1160 305 L1160 365" class="l"/>
<rect x="300" y="610" rx="18" width="390" height="125" class="b"/><text x="340" y="654" class="t" font-size="27">Recovery path</text><text x="340" y="692" class="s">replacement volunteer / self-pickup</text><path d="M1308 305 C1308 570,900 580,690 655" class="l"/>
<rect x="815" y="610" rx="18" width="390" height="125" class="w"/><text x="855" y="654" class="t" font-size="27">Human approval</text><text x="855" y="692" class="s">only when safe autonomy ends</text><path d="M690 672 L815 672" class="l"/>
<rect x="1280" y="610" rx="18" width="230" height="125" class="b"/><text x="1320" y="654" class="t" font-size="25">AgentCore</text><text x="1320" y="692" class="s">Runtime target</text><path d="M1205 672 L1280 672" class="l"/>
<text x="70" y="830" class="s">Foundation model: Amazon Bedrock / Claude Sonnet 4.6 • Hard safety rules remain outside free-form model judgment</text>
</svg>
